<svg width="167" height="42" fill="none" xmlns="http://www.w3.org/2000/svg"><g clip-path="url(#a)" fill="#000"><path d="M166.589 41.21v-28.6h-8.874v28.6h8.874ZM162.063 9.974c2.727 0 4.937-2.233 4.937-4.987S164.79 0 162.063 0c-2.727 0-4.937 2.233-4.937 4.987s2.21 4.987 4.937 4.987ZM4.467 18.739c2.467 0 4.467-2.02 4.467-4.512 0-2.492-2-4.512-4.467-4.512C2 9.715 0 11.735 0 14.227c0 2.492 2 4.512 4.467 4.512ZM32.38 26.111c0 4.523 1.923 8.489 4.94 11.537 3.208 3.24 7.608 4.341 10.79 4.341 4.906 0 10.465-2.488 13.475-7.634l-6.558-3.434c-1.277 2.116-3.92 3.71-6.916 3.71-3.565 0-7.358-2.587-8.169-6.397h23.626c.42-2.793.375-8.822-4.604-13.62-2.67-2.574-6.58-4.37-10.822-4.37-10.161 0-15.762 8.747-15.762 15.867Zm23.43-3.42H40.397s2.095-5.132 7.632-5.132c5.856 0 7.78 5.132 7.78 5.132ZM121.696.72v40.493h6.215l1.119-2.949c1.758 2.343 5.067 3.74 8.79 3.74 8.67 0 15.702-7.1 15.702-15.861 0-8.758-7.028-15.86-15.702-15.86-2.572 0-5.155.843-7.25 2.26V.72h-8.874Zm7.79 25.423c0-4.416 3.544-7.996 7.916-7.996s7.916 3.58 7.916 7.996-3.544 7.996-7.916 7.996-7.916-3.58-7.916-7.996ZM10.513 10.956V.72h8.58v10.236h8.926v7.074h-8.927v11.905c0 2.673 1.13 4.009 3.232 4.009 1.516 0 2.803-1.17 3.354-2.538l6.818 3.683c-3.944 6.982-9.369 6.808-11.899 6.808-4.168 0-10.088-3.292-10.088-10.55V10.955h.004ZM113.1 13.638c-2.064-2.24-4.881-3.36-8.46-3.36-4.239 0-7.608 1.769-10.096 5.306-2.102-3.537-5.407-5.306-9.92-5.306-3.93 0-6.845 1.531-8.75 4.597v-3.891h-8.52V41.22h8.87V23.8c0-2.821 2.302-5.625 5.576-5.625 4.028 0 5.569 3.601 5.569 5.625v17.42h8.87V23.8c0-2.821 2.302-5.625 5.576-5.625 4.028 0 5.569 3.601 5.569 5.625v17.42h8.81V22.832c0-3.891-1.031-6.954-3.091-9.194h-.003Z"/></g><defs><clipPath id="a"><path fill="#fff" d="M0 0h167v42H0z"/></clipPath></defs></svg>